<svg width="15" height="18" viewBox="0 0 15 18" fill="none" xmlns="http://www.w3.org/2000/svg">
<path fill-rule="evenodd" clip-rule="evenodd" d="M10.2134 0.0970408C9.83513 0.253569 9.64335 0.383485 9.35056 0.681465C9.13437 0.901471 9.05544 1.00774 8.95383 1.21553C8.56928 2.00205 8.60538 2.88143 9.05233 3.61311C9.53235 4.39892 10.3277 4.85096 11.2335 4.85276C11.6604 4.85361 11.9329 4.7905 12.3123 4.60297C12.6606 4.43085 12.9004 4.24206 13.1391 3.95198C13.2936 3.76427 13.5536 3.2916 13.5536 3.1983C13.5536 3.17777 13.4964 3.21466 13.4265 3.28031C13.129 3.55967 12.7868 3.74119 12.3634 3.84416C11.9754 3.93856 11.483 3.91625 11.1231 3.78795C10.4353 3.54279 9.96883 3.07284 9.73592 2.39049C9.66079 2.17039 9.65253 2.10575 9.6522 1.73434C9.65184 1.35046 9.65815 1.3041 9.74483 1.05498C9.89498 0.623419 10.1109 0.313171 10.4203 0.0844672C10.5779 -0.0319904 10.5161 -0.0282366 10.2134 0.0970408ZM0.524374 1.84445C0.34967 1.90808 0.171945 2.07465 0.0817966 2.25923L0.00438972 2.41774L0.00468865 4.66245L0.00498804 6.90719L0.0756052 7.06195C0.114428 7.14706 0.198446 7.26083 0.262243 7.31476C0.490008 7.5073 0.452201 7.5047 2.89581 7.49543L5.10876 7.48703L5.25463 7.39502C5.36099 7.32791 5.42407 7.25766 5.48751 7.13562L5.57455 6.96822L5.55926 4.58081C5.5421 1.90226 5.5604 2.10526 5.31813 1.90543L5.20319 1.81064L2.92533 1.80512C0.988098 1.80045 0.629059 1.80631 0.524374 1.84445ZM4.53835 2.87286L4.61052 2.95849V4.66815V6.37782L4.52309 6.46702L4.43567 6.55623H2.77106H1.10645L1.01902 6.46702L0.931598 6.37782V4.6641V2.95037L1.01977 2.86044L1.10792 2.77047L2.78706 2.77886L4.46618 2.78722L4.53835 2.87286ZM6.77364 3.08292C6.66423 3.13687 6.63848 3.25589 6.6493 3.65715C6.66234 4.13933 6.66794 4.14529 7.108 4.14529C7.54807 4.14529 7.55366 4.13933 7.5667 3.65715C7.57777 3.24771 7.55196 3.13614 7.43357 3.08111C7.34118 3.03815 6.86172 3.03946 6.77364 3.08292ZM1.8565 3.71568L1.76908 3.80489V4.67023C1.76908 5.61376 1.77126 5.62679 1.94202 5.69897C2.00267 5.72461 2.2599 5.73248 2.82493 5.72607L3.62224 5.71698L3.70512 5.63241L3.788 5.54784L3.79682 4.6923L3.80564 3.83675L3.7026 3.73161L3.59957 3.62648H2.77175H1.94393L1.8565 3.71568ZM6.71783 5.25783C6.64772 5.32936 6.6444 5.34987 6.6444 5.71389C6.6444 6.0709 6.64888 6.10038 6.71528 6.17914C6.78429 6.26099 6.79481 6.26328 7.10672 6.26478C7.42394 6.26627 7.42798 6.26539 7.50171 6.17795C7.57406 6.09214 7.57591 6.0784 7.56643 5.69454C7.55381 5.18462 7.55225 5.18291 7.10334 5.18291C6.81183 5.18291 6.78638 5.18785 6.71783 5.25783ZM10.6374 5.65878C10.4066 6.0466 10.0182 6.3661 9.08206 6.93819C8.2054 7.47394 7.77087 7.78733 7.43267 8.1277C7.0052 8.55795 6.769 8.95566 6.62609 9.48598C6.54384 9.79125 6.55063 10.403 6.63982 10.722C6.8174 11.3571 7.20811 11.8358 7.88527 12.2479C7.91967 12.2688 7.77257 12.2757 7.41703 12.2698C6.93958 12.2619 6.89089 12.2661 6.80068 12.3232C6.74681 12.3573 6.68959 12.4205 6.67356 12.4635C6.65753 12.5066 6.6444 12.8436 6.6444 13.2126V13.8834L6.71783 13.9583C6.7853 14.0272 6.81384 14.0332 7.071 14.0332C7.47284 14.0332 7.46357 14.045 7.48188 13.5093L7.49683 13.0719L8.03437 13.0566C8.68683 13.0381 8.64759 13.0733 8.64726 12.5073C8.64699 12.0076 8.61729 11.9379 8.29928 11.6909C7.73572 11.2532 7.46641 10.8173 7.408 10.2484C7.348 9.66402 7.62814 9.0847 8.22502 8.55877C8.52804 8.2918 8.88642 8.0439 9.57901 7.62226C10.3043 7.18075 10.5382 7.01486 10.6821 6.83996L10.7808 6.71999L10.9031 6.85534C11.0648 7.03433 11.2941 7.19662 11.8188 7.50336C12.4107 7.84941 13.0433 8.27868 13.3198 8.52188C13.5922 8.76154 13.8804 9.11765 14.0038 9.36699C14.2388 9.84207 14.2364 10.403 13.9973 10.9081C13.8804 11.155 13.5282 11.5377 13.2293 11.7425C13.1029 11.8291 13.0255 11.9068 12.9975 11.9753C12.9424 12.1098 12.9374 12.965 12.9913 13.02C13.0165 13.0457 13.1851 13.0566 13.5585 13.0566C14.0532 13.0566 14.092 13.0607 14.1208 13.1156C14.1414 13.1549 14.1518 13.9573 14.1518 15.506V17.8373L14.229 17.9113C14.2982 17.9776 14.3325 17.9853 14.5605 17.9853C14.8098 17.9853 14.8164 17.9834 14.902 17.8856L14.9893 17.786V15.149V12.512L14.9135 12.4201C14.793 12.2739 14.6801 12.2524 14.131 12.271C13.8628 12.28 13.6433 12.2785 13.6433 12.2676C13.6433 12.2567 13.7054 12.2142 13.7814 12.173C14.2268 11.9319 14.635 11.4747 14.8316 10.9966C14.9645 10.6736 15.0016 10.4652 15 10.0506C14.9986 9.7113 14.9869 9.61489 14.9187 9.38506C14.8274 9.0771 14.7344 8.87668 14.5622 8.61621C14.1831 8.04314 13.7186 7.65986 12.5185 6.92986C11.3712 6.23197 11.097 6.00492 10.8556 5.55297C10.8276 5.50048 10.794 5.4576 10.7809 5.45763C10.7677 5.45769 10.7032 5.54818 10.6374 5.65878ZM1.12604 8.57101C0.980082 8.61774 0.961508 8.67132 0.961508 9.04591C0.961508 9.52684 0.966144 9.53176 1.41934 9.53176C1.89228 9.53176 1.88872 9.53548 1.88872 9.03944C1.88872 8.66446 1.88848 8.66324 1.80787 8.60928C1.71497 8.54712 1.27745 8.52258 1.12604 8.57101ZM3.26457 8.59073C3.12753 8.64627 3.11502 8.68661 3.11502 9.07398C3.11502 9.558 3.11526 9.55828 3.55958 9.57241C3.84916 9.58162 3.88589 9.57653 3.96031 9.5168C4.04166 9.45149 4.04223 9.44838 4.04223 9.07649C4.04223 8.59094 4.04002 8.58838 3.61297 8.57913C3.44601 8.57553 3.28925 8.58075 3.26457 8.59073ZM4.97719 8.59195C4.8495 8.61706 4.81989 8.70908 4.81989 9.08079C4.81989 9.56084 4.85492 9.59221 5.36889 9.5729C5.76834 9.55788 5.77701 9.54778 5.77701 9.09776C5.77701 8.90622 5.76382 8.7244 5.74773 8.6937C5.73164 8.66299 5.67579 8.62271 5.62363 8.60415C5.53309 8.57196 5.11854 8.56411 4.97719 8.59195ZM1.01873 10.5502C0.95729 10.6009 0.948287 10.6393 0.937221 10.8977C0.914758 11.4215 0.971947 11.4823 1.47081 11.465C1.87924 11.4508 1.88872 11.4394 1.88872 10.9627C1.88872 10.6558 1.88172 10.608 1.8289 10.5541C1.77608 10.5002 1.72921 10.4931 1.42843 10.4931C1.14025 10.4931 1.07714 10.5019 1.01873 10.5502ZM3.18166 10.5306C3.08933 10.576 3.07016 10.6658 3.07016 11.0528C3.07016 11.5405 2.94983 11.5002 4.40582 11.5002H5.60027L5.67367 11.4253C5.7427 11.3549 5.7471 11.3303 5.7471 11.0158C5.7471 10.8317 5.73872 10.6589 5.72853 10.6318C5.67941 10.5012 5.59919 10.493 4.39517 10.4952C3.63067 10.4965 3.22701 10.5083 3.18166 10.5306ZM0.369381 12.4336C0.193451 12.5231 0.105456 12.6321 0.0456656 12.8348C-0.0154703 13.0421 -0.0151117 17.2838 0.0460841 17.4913C0.101537 17.6794 0.245703 17.8593 0.403299 17.9371C0.529938 17.9997 0.563706 18.0006 2.78799 17.9999C4.90567 17.9993 5.05157 17.9958 5.16412 17.9437C5.31388 17.8742 5.46505 17.7016 5.50794 17.5509C5.53076 17.4709 5.53797 16.7269 5.53175 15.0987L5.52277 12.7614L5.43714 12.6354C5.38363 12.5566 5.29444 12.4803 5.19948 12.432L5.04742 12.3547H2.78601H0.524614L0.369381 12.4336ZM4.4741 13.3055C4.51577 13.3248 4.57361 13.3763 4.60262 13.4199C4.65108 13.4927 4.65613 13.6308 4.6646 15.1166C4.67082 16.2134 4.66337 16.7704 4.64145 16.8469C4.62365 16.9089 4.57394 16.9879 4.53099 17.0223C4.45436 17.0839 4.42206 17.085 2.80441 17.0849C1.2184 17.0848 1.15227 17.0825 1.05952 17.0248C0.968627 16.9683 0.937311 16.9069 0.926693 16.7646C0.92418 16.731 0.924241 15.9733 0.926873 15.0808L0.931598 13.458L1.00903 13.3641L1.08647 13.2702H2.74241C3.93007 13.2702 4.41976 13.2802 4.4741 13.3055ZM1.84448 14.1976C1.80518 14.2377 1.76456 14.3167 1.75418 14.3731C1.7438 14.4295 1.73956 14.8305 1.74473 15.2641L1.75412 16.0525L1.85181 16.1415L1.94949 16.2305H2.78246C3.57633 16.2305 3.61907 16.2276 3.69321 16.1681C3.81722 16.0686 3.83286 15.9413 3.82509 15.0957L3.81791 14.3118L3.73006 14.2183L3.64222 14.1248H2.77905H1.9159L1.84448 14.1976ZM9.67921 14.1843C9.57157 14.2288 9.55314 14.2864 9.53914 14.6225C9.52018 15.0778 9.51662 15.0811 9.01871 15.1013C8.49089 15.1228 8.52872 15.0458 8.52872 16.0979V16.9352L8.60461 17.0126C8.67869 17.0882 8.68904 17.0898 9.03731 17.0799C9.50896 17.0665 9.49625 17.0801 9.51575 16.5684C9.53555 16.0483 9.52733 16.0575 9.98402 16.0427C10.4103 16.0289 10.4419 16.0044 10.4448 15.6854C10.4472 15.4029 10.4862 15.1892 10.5429 15.1469C10.5767 15.1217 10.9641 15.1047 11.8545 15.0896C12.9548 15.0709 13.125 15.0618 13.1713 15.019C13.2162 14.9776 13.2246 14.9173 13.2246 14.6375C13.2246 14.3253 13.2201 14.3005 13.1512 14.2302L13.0778 14.1553L11.4089 14.1572C10.4911 14.1583 9.71268 14.1705 9.67921 14.1843ZM6.87584 15.1592C6.64389 15.1939 6.62944 15.2245 6.62944 15.6812C6.62944 16.1837 6.62714 16.1807 7.02093 16.1954C7.49052 16.2129 7.5417 16.1606 7.5417 15.6634C7.5417 15.3565 7.51472 15.2432 7.43097 15.1982C7.35305 15.1564 7.04136 15.1345 6.87584 15.1592ZM11.6492 16.091C11.5117 16.1533 11.4898 16.2202 11.4898 16.5777C11.4898 16.8727 11.4956 16.9054 11.562 16.9841L11.6341 17.0698L12.3486 17.0789C13.2725 17.0907 13.2246 17.1178 13.2246 16.5846C13.2246 16.2221 13.2222 16.2084 13.1475 16.1366C13.0712 16.0635 13.0633 16.0626 12.4072 16.0554C11.8898 16.0497 11.7232 16.0575 11.6492 16.091ZM6.74355 17.0852C6.63883 17.1283 6.61449 17.2142 6.61449 17.5408C6.61449 17.8043 6.62274 17.8564 6.67263 17.9073C6.74929 17.9855 6.89899 18.0115 7.17039 17.9937C7.49683 17.9724 7.51191 17.9519 7.51134 17.5304C7.51083 17.1713 7.50425 17.1447 7.4016 17.0896C7.32578 17.0489 6.83983 17.0457 6.74355 17.0852Z" fill="white"/>
</svg>
